<svg xmlns="http://www.w3.org/2000/svg" viewBox="0 0 11613 2003" width="11613" height="2003"><path d="M3.14.72c.07 13.07.16 32.3.19 56v47.44C3.24 146 3.12 177.57 3.11 182c-.28 72.58-.58 109.13-1.02 199.93-.11 23.24-.25 52.9-.39 92.91-.19 51.4-.28 92-.36 135.16-.12 57.31-.26 139.53-.42 243.28H.47V.72z" fill="none"/><path d="M241.47.72c.106 13.07.239 32.3.284 56 .006 15.807.009 31.618-.01 47.44-.122 41.84-.303 73.41-.322 77.84-.422 72.58-.873 109.13-1.531 199.93-.166 23.24-.376 52.9-.589 92.91-.283 51.4-.419 92-.542 135.16-.178 57.31-.391 139.53-.617 243.28h-.673V.72z" fill="#161616" fill-opacity=".457252" stroke="#161616" stroke-opacity=".457252" stroke-miterlimit="10"/><path d="M482.693.72c.223 13.07.493 32.3.584 56 .024 15.787.039 31.589-.042 47.44-.224 41.84-.597 73.41-.644 77.84-.873 72.58-1.804 109.13-3.154 199.93-.343 23.24-.779 52.9-1.222 92.91-.579 51.4-.86 92-1.121 135.16-.36 57.31-.809 139.53-1.244 243.28h-1.382V.72z" fill="#161616" fill-opacity=".920776" stroke="#161616" stroke-opacity=".920776" stroke-miterlimit="10"/><path d="M727.212.72c.429 13.07.943 32.3 1.118 56 .055 15.751.09 31.538-.1 47.44-.405 41.84-1.122 73.41-1.217 77.84-1.676 72.58-3.463 109.13-6.045 199.93-.659 23.24-1.494 52.9-2.347 92.91-1.107 51.4-1.645 92-2.152 135.16-.685 57.31-1.552 139.53-2.36 243.28h-2.643V.72zM975.502.72c.739 13.07 1.619 32.3 1.92 56 .103 15.698.168 31.462-.187 47.44-.676 41.84-1.908 73.41-2.077 77.84-2.883 72.58-5.953 109.13-10.386 199.93-1.132 23.24-2.568 52.9-4.037 92.91-1.898 51.4-2.825 92-3.699 135.16-1.175 57.31-2.669 139.53-4.036 243.28h-4.538V.72zM1228.129.72c1.168 13.07 2.555 32.3 3.029 56 .17 15.623.277 31.357-.307 47.44-1.051 41.84-2.997 73.41-3.268 77.84-4.552 72.58-9.4 109.13-16.394 199.93-1.787 23.24-4.054 52.9-6.376 92.91-2.994 51.4-4.456 91.999-5.84 135.16-1.851 57.31-4.215 139.53-6.356 243.28h-7.16V.72zM1485.759.72c1.734 13.07 3.79 32.3 4.493 56 .258 15.525.42 31.218-.465 47.44-1.548 41.84-4.436 73.41-4.841 77.84-6.756 72.58-13.95 109.13-24.324 199.93-2.653 23.24-6.017 52.9-9.465 92.91-4.44 51.4-6.611 91.999-8.668 135.16-2.744 57.31-6.255 139.53-9.417 243.28h-10.622V.72zM1749.162.72c2.46 13.07 5.371 32.3 6.368 56 .37 15.4.602 31.04-.668 47.44-2.182 41.839-6.276 73.41-6.853 77.84-9.577 72.58-19.774 109.13-34.476 199.93-3.759 23.24-8.528 52.9-13.417 92.91-6.291 51.4-9.368 91.999-12.286 135.16-3.887 57.31-8.867 139.53-13.336 243.28h-15.053V.72zM2019.203.72c3.367 13.07 7.35 32.3 8.714 56 .51 15.243.831 30.817-.922 47.44-2.976 41.839-8.578 73.41-9.371 77.84-13.107 72.58-27.061 109.13-47.178 199.93-5.146 23.24-11.672 52.9-18.364 92.91-8.607 51.4-12.819 91.998-16.814 135.16-5.317 57.31-12.135 139.53-18.24 243.28h-20.598V.72zM2296.787.72c4.482 13.07 9.78 32.3 11.594 56 .684 15.05 1.113 30.543-1.233 47.44-3.951 41.839-11.407 73.41-12.464 77.84-17.443 72.58-36.012 109.13-62.781 199.93-6.847 23.24-15.532 52.9-24.438 92.91-11.453 51.4-17.058 91.998-22.376 135.16-7.075 57.31-16.149 139.53-24.264 243.28h-27.409V.72zM2582.728.72c5.825 13.07 12.711 32.3 15.069 56 .891 14.817 1.451 30.213-1.609 47.44-5.128 41.839-14.818 73.41-16.195 77.84-22.672 72.58-46.806 109.13-81.595 199.93-8.901 23.24-20.189 52.9-31.766 92.91-14.884 51.4-22.169 91.997-29.083 135.16-9.193 57.31-20.989 139.53-31.528 243.28H2370.4V.72zM2877.508.72c7.412 13.07 16.171 32.3 19.17 56 1.138 14.543 1.852 29.823-2.052 47.44-6.517 41.838-18.846 73.41-20.599 77.84-28.845 72.58-59.55 109.13-103.809 199.93-11.323 23.24-25.685 52.9-40.414 92.91-18.936 51.4-28.204 91.996-37.002 135.16-11.694 57.31-26.704 139.53-40.104 243.28h-45.317V.72z" fill="#161616" stroke="#161616" stroke-miterlimit="10"/><path d="M3180.908.72c9.235 13.07 20.147 32.3 23.884 56 1.42 14.227 2.312 29.375-2.562 47.44-8.113 41.838-23.474 73.41-25.66 77.84-35.939 72.58-74.194 109.13-129.336 199.93-14.109 23.24-32.002 52.9-50.355 92.91-23.591 51.4-35.138 91.995-46.101 135.16-14.569 57.31-33.272 139.53-49.96 243.28h-56.459V.72z" fill="#161616" stroke="#161616" stroke-miterlimit="10"/><path d="M3491.635.72c11.26 13.07 24.562 32.3 29.118 56 1.733 13.877 2.822 28.878-3.128 47.44-9.885 41.837-28.612 73.41-31.28 77.84-43.815 72.58-90.455 109.13-157.679 199.93-17.202 23.24-39.017 52.9-61.392 92.91-28.76 51.4-42.839 91.994-56.206 135.16-17.76 57.31-40.563 139.53-60.902 243.28h-68.832V.72z" fill="#161616" stroke="#161616" stroke-miterlimit="10"/><path d="M3807.223.72c13.418 13.07 29.267 32.3 34.697 56 2.067 13.504 3.366 28.348-3.732 47.44-11.774 41.837-34.09 73.41-37.27 77.84-52.211 72.58-107.788 109.13-187.892 199.93-20.497 23.24-46.492 52.9-73.156 92.91-34.27 51.4-51.047 91.993-66.976 135.16-21.162 57.31-48.336 139.53-72.566 243.28h-82.02V.72z" fill="#161616" stroke="#161616" stroke-miterlimit="10"/><path d="M4124.46.72c15.622 13.07 34.073 32.3 40.393 56 2.409 13.122 3.922 27.806-4.347 47.44-13.703 41.836-39.683 73.41-43.386 77.84-60.783 72.58-125.485 109.13-218.739 199.93-23.863 23.24-54.126 52.9-85.168 92.91-39.895 51.4-59.426 91.992-77.972 135.16-24.635 57.31-56.271 139.53-84.475 243.28h-95.485V.72z" fill="#161616" stroke="#161616" stroke-miterlimit="10"/><path d="M4440.212.72c17.784 13.07 38.789 32.3 45.984 56 2.744 12.748 4.468 27.275-4.952 47.44-15.595 41.835-45.171 73.41-49.388 77.84-69.197 72.58-142.854 109.13-249.015 199.93-27.166 23.24-61.618 52.9-96.957 92.91-45.417 51.4-67.652 91.991-88.765 135.16-28.045 57.31-64.061 139.53-96.164 243.28h-108.7V.72z" fill="#161616" stroke="#161616" stroke-miterlimit="10"/><path d="M4752.112.72c19.841 13.07 43.274 32.3 51.301 56 3.062 12.392 4.986 26.77-5.527 47.44-17.396 41.835-50.392 73.41-55.097 77.84-77.199 72.58-159.374 109.13-277.81 199.93-30.307 23.24-68.743 52.9-108.17 92.91-50.668 51.4-75.474 91.99-99.029 135.16-31.287 57.31-71.469 139.53-107.281 243.28H4029.23V.72z" fill="#161616" stroke="#161616" stroke-miterlimit="10"/><path d="M5058.785.72c21.754 13.07 47.446 32.3 56.247 56 3.358 12.061 5.468 26.3-6.062 47.44-19.07 41.834-55.248 73.41-60.408 77.84-84.642 72.58-174.74 109.13-304.595 199.93-33.229 23.24-75.371 52.9-118.599 92.91-55.553 51.4-82.751 91.989-108.579 135.16-34.302 57.31-78.359 139.53-117.622 243.28h-132.96V.72z" fill="#161616" stroke="#161616" stroke-miterlimit="10"/><path d="M5359.692.72c23.508 13.07 51.272 32.3 60.783 56 3.63 11.758 5.911 25.869-6.552 47.44-20.607 41.834-59.703 73.41-65.279 77.84-91.47 72.58-188.835 109.13-329.164 199.93-35.91 23.24-81.451 52.9-128.166 92.91-60.034 51.4-89.425 91.988-117.337 135.16-37.069 57.31-84.679 139.53-127.107 243.28h-143.684V.72z" fill="#161616" stroke="#161616" stroke-miterlimit="10"/><path d="M5654.838.72c25.106 13.07 54.755 32.3 64.912 56 3.877 11.481 6.314 25.477-6.999 47.44-22.004 41.834-63.756 73.41-69.711 77.84-97.682 72.58-201.659 109.13-351.518 199.93-38.348 23.24-86.983 52.9-136.871 92.91-64.11 51.4-95.498 91.987-125.305 135.16-39.586 57.31-90.431 139.53-135.737 243.28h-153.443V.72z" fill="#161616" stroke="#161616" stroke-miterlimit="10"/><path d="M5944.527.72c26.552 13.07 57.91 32.3 68.652 56 4.101 11.231 6.678 25.121-7.404 47.44-23.27 41.833-67.427 73.41-73.727 77.84-103.311 72.58-213.28 109.13-371.773 199.93-40.559 23.24-91.996 52.9-144.759 92.91-67.804 51.4-101 91.986-132.526 135.16-41.867 57.31-95.641 139.53-143.557 243.28h-162.284V.72z" fill="#161616" stroke="#161616" stroke-miterlimit="10"/><path d="M6229.188.72c27.861 13.07 60.764 32.3 72.035 56 4.304 11.005 7.009 24.8-7.769 47.44-24.416 41.833-70.75 73.41-77.36 77.84-108.403 72.58-223.792 109.13-390.097 199.93-42.557 23.24-96.529 52.9-151.893 92.91-71.145 51.4-105.978 91.986-139.057 135.16-43.931 57.31-100.356 139.53-150.632 243.28h-170.282V.72z" fill="#161616" stroke="#161616" stroke-miterlimit="10"/><path d="M6509.286.72c29.045 13.07 63.345 32.3 75.095 56 4.487 10.8 7.307 24.509-8.1 47.44-25.452 41.833-73.754 73.41-80.645 77.84-113.007 72.58-233.297 109.13-406.666 199.93-44.365 23.24-100.629 52.9-158.344 92.91-74.168 51.4-110.48 91.985-144.965 135.16-45.796 57.31-104.618 139.53-157.028 243.28h-177.515V.72z" fill="#161616" stroke="#161616" stroke-miterlimit="10"/><path d="M6785.271.72c30.115 13.07 65.679 32.3 77.862 56 4.654 10.614 7.578 24.246-8.399 47.44-26.389 41.832-76.471 73.41-83.616 77.84-117.173 72.58-241.896 109.13-421.654 199.93-45.999 23.24-104.338 52.9-164.18 92.91-76.901 51.4-114.552 91.984-150.307 135.16-47.484 57.31-108.474 139.53-162.815 243.28h-184.057V.72z" fill="#161616" stroke="#161616" stroke-miterlimit="10"/><path d="M7057.556.72c31.085 13.07 67.793 32.3 80.368 56 4.803 10.447 7.821 24.008-8.67 47.44-27.238 41.832-78.931 73.41-86.306 77.84-120.942 72.58-249.678 109.13-435.219 199.93-47.48 23.24-107.695 52.9-169.463 92.91-79.375 51.4-118.236 91.984-155.143 135.16-49.011 57.31-111.964 139.53-168.052 243.28h-189.977V.72z" fill="#161616" stroke="#161616" stroke-miterlimit="10"/><path d="M7326.513.72c31.962 13.07 69.706 32.3 82.636 56 4.94 10.295 8.043 23.792-8.915 47.44-28.006 41.832-81.158 73.41-88.742 77.84-124.356 72.58-256.726 109.13-447.504 199.93-48.82 23.24-110.735 52.9-174.247 92.91-81.615 51.4-121.574 91.984-159.522 135.16-50.395 57.31-115.125 139.53-172.796 243.28h-195.34V.72z" fill="#161616" stroke="#161616" stroke-miterlimit="10"/><path d="M7592.469.72c32.757 13.07 71.44 32.3 84.691 56 5.063 10.157 8.244 23.597-9.137 47.44-28.702 41.832-83.176 73.41-90.949 77.84-127.45 72.58-263.113 109.13-458.636 199.93-50.035 23.24-113.49 52.9-178.582 92.91-83.645 51.4-124.598 91.983-163.49 135.16-51.648 57.31-117.989 139.53-177.093 243.28h-200.2V.72z" fill="#161616" stroke="#161616" stroke-miterlimit="10"/><path d="M7855.711.72c33.477 13.07 73.011 32.3 86.554 56 5.174 10.033 8.425 23.42-9.339 47.44-29.333 41.831-85.005 73.41-92.949 77.84-130.253 72.58-268.9 109.13-468.725 199.93-51.135 23.24-115.986 52.9-182.51 92.91-85.485 51.4-127.338 91.983-167.087 135.16-52.783 57.31-120.583 139.53-180.987 243.28h-204.603V.72z" fill="#161616" stroke="#161616" stroke-miterlimit="10"/><path d="M8116.491.72c34.13 13.07 74.435 32.3 88.242 56 5.275 9.92 8.59 23.26-9.522 47.44-29.904 41.831-86.662 73.41-94.761 77.84-132.794 72.58-274.145 109.13-477.867 199.93-52.132 23.24-118.248 52.9-186.07 92.91-87.152 51.4-129.822 91.982-170.345 135.16-53.814 57.31-122.936 139.53-184.518 243.28h-208.593V.72z" fill="#161616" stroke="#161616" stroke-miterlimit="10"/><path d="M8375.029.72c34.722 13.07 75.725 32.3 89.772 56 5.367 9.817 8.739 23.114-9.687 47.44-30.422 41.831-88.164 73.41-96.403 77.84-135.095 72.58-278.896 109.13-486.148 199.93-53.036 23.24-120.297 52.9-189.294 92.91-88.662 51.4-132.072 91.982-173.297 135.16-54.746 57.31-125.066 139.53-187.714 243.28H7110.05V.72z" fill="#161616" stroke="#161616" stroke-miterlimit="10"/><path d="M8631.52.72c35.257 13.07 76.892 32.3 91.155 56 5.45 9.725 8.874 22.983-9.836 47.44-30.891 41.831-89.523 73.41-97.889 77.84-137.177 72.58-283.195 109.13-493.64 199.93-53.854 23.24-122.152 52.9-192.212 92.91-90.029 51.4-134.108 91.982-175.969 135.16-55.59 57.31-126.994 139.53-190.607 243.28h-215.479V.72z" fill="#161616" stroke="#161616" stroke-miterlimit="10"/><path d="M8886.134.72c35.74 13.07 77.947 32.3 92.405 56 5.525 9.641 8.996 22.864-9.972 47.44-31.313 41.831-90.75 73.41-99.231 77.84-139.059 72.58-287.079 109.13-500.412 199.93-54.592 23.24-123.827 52.9-194.848 92.91-91.264 51.4-135.947 91.982-178.383 135.16-56.352 57.31-128.736 139.53-193.221 243.28h-218.435V.72z" fill="#161616" stroke="#161616" stroke-miterlimit="10"/><path d="M9139.02.72c36.177 13.07 78.899 32.3 93.534 56 5.592 9.566 9.106 22.757-10.094 47.44-31.696 41.831-91.857 73.41-100.442 77.84-140.757 72.58-290.583 109.13-506.52 199.93-55.258 23.24-125.338 52.9-197.227 92.91-92.377 51.4-137.606 91.981-180.559 135.16-57.04 57.31-130.308 139.53-195.58 243.28h-221.1V.72z" fill="#161616" stroke="#161616" stroke-miterlimit="10"/><path d="M9390.313.72c36.57 13.07 79.754 32.3 94.548 56 5.653 9.498 9.205 22.66-10.204 47.44-32.039 41.831-92.853 73.41-101.531 77.84-142.284 72.58-293.736 109.13-512.014 199.93-55.858 23.24-126.699 52.9-199.367 92.91-93.379 51.4-139.099 91.981-182.518 135.16-57.659 57.31-131.721 139.53-197.701 243.28h-223.499V.72z" fill="#161616" stroke="#161616" stroke-miterlimit="10"/><path d="M9640.13.72c36.922 13.07 80.522 32.3 95.458 56 5.708 9.437 9.294 22.574-10.302 47.44-32.347 41.83-93.747 73.41-102.508 77.84-143.653 72.58-296.563 109.13-516.942 199.93-56.396 23.24-127.918 52.9-201.285 92.91-94.279 51.4-140.438 91.981-184.275 135.16-58.213 57.31-132.989 139.53-199.603 243.28h-225.65V.72z" fill="#161616" stroke="#161616" stroke-miterlimit="10"/><path d="M9888.578.72c37.236 13.07 81.207 32.3 96.27 56 5.757 9.382 9.373 22.497-10.39 47.44-32.622 41.83-94.544 73.41-103.38 77.84-144.876 72.58-299.088 109.13-521.343 199.93-56.876 23.24-129.007 52.9-202.999 92.91-95.081 51.4-141.633 91.981-185.844 135.16-58.709 57.31-134.121 139.53-201.302 243.28h-227.571V.72z" fill="#161616" stroke="#161616" stroke-miterlimit="10"/><path d="M10135.75.72c37.515 13.07 81.816 32.3 96.993 56 5.799 9.334 9.443 22.428-10.468 47.44-32.867 41.83-95.254 73.41-104.157 77.84-145.962 72.58-301.33 109.13-525.253 199.93-57.302 23.24-129.974 52.9-204.522 92.91-95.794 51.4-142.695 91.981-187.238 135.16-59.149 57.31-135.126 139.53-202.812 243.28h-229.277V.72z" fill="#161616" stroke="#161616" stroke-miterlimit="10"/><path d="M10381.732.72c37.761 13.07 82.354 32.3 97.63 56 5.838 9.291 9.506 22.367-10.537 47.44-33.083 41.83-95.88 73.41-104.841 77.84-146.922 72.58-303.312 109.13-528.706 199.93-57.679 23.24-130.829 52.9-205.866 92.91-96.424 51.4-143.634 91.981-188.469 135.16-59.538 57.31-136.015 139.53-204.145 243.28h-230.785V.72z" fill="#161616" stroke="#161616" stroke-miterlimit="10"/><path d="M10626.6.72c37.978 13.07 82.825 32.3 98.189 56 5.871 9.254 9.56 22.314-10.598 47.44-33.272 41.83-96.428 73.41-105.44 77.84-147.763 72.58-305.047 109.13-531.731 199.93-58.01 23.24-131.578 52.9-207.044 92.91C9773 526.24 9725.52 566.82 9680.428 610c-59.878 57.31-136.793 139.53-205.313 243.28H9243.01V.72z" fill="#161616" stroke="#161616" stroke-miterlimit="10"/><path d="M10870.423.72c38.165 13.07 83.234 32.3 98.673 56 5.901 9.222 9.608 22.268-10.649 47.44-33.436 41.83-96.904 73.41-105.961 77.84-148.492 72.58-306.552 109.13-534.354 199.93-58.296 23.24-132.227 52.9-208.066 92.91-97.454 51.4-145.168 91.98-190.482 135.16-60.174 57.31-137.468 139.53-206.326 243.28h-233.25V.72z" fill="#161616" stroke="#161616" stroke-miterlimit="10"/><path d="M11113.265.72c38.325 13.07 83.584 32.3 99.088 56 5.925 9.194 9.648 22.229-10.695 47.44-33.576 41.83-97.311 73.41-106.406 77.84-149.116 72.58-307.84 109.13-536.6 199.93-58.54 23.24-132.782 52.9-208.94 92.91-97.863 51.4-145.778 91.98-191.283 135.16-60.427 57.31-138.046 139.53-207.193 243.28h-234.23V.72z" fill="#161616" stroke="#161616" stroke-miterlimit="10"/><path d="M11355.182.72c38.461 13.07 83.878 32.3 99.437 56 5.946 9.17 9.682 22.196-10.732 47.44-33.695 41.83-97.654 73.41-106.781 77.84-149.641 72.58-308.925 109.13-538.491 199.93-58.746 23.24-133.25 52.9-209.676 92.91-98.208 51.4-146.291 91.98-191.957 135.16-60.639 57.31-138.532 139.53-207.922 243.28h-235.056V.72z" fill="#161616" stroke="#161616" stroke-miterlimit="10"/><path d="M11596.226.72c38.572 13.07 84.121 32.3 99.725 56 5.963 9.151 9.709 22.169-10.764 47.44-33.791 41.83-97.935 73.41-107.089 77.84-150.073 72.58-309.817 109.13-540.045 199.93-58.916 23.24-133.635 52.9-210.282 92.91-98.492 51.4-146.714 91.98-192.511 135.16-60.815 57.31-138.932 139.53-208.523 243.28h-235.734V.72z" fill="#161616" stroke="#161616" stroke-miterlimit="10"/><path d="M11836.446.72c38.66 13.07 84.313 32.3 99.953 56 5.977 9.136 9.732 22.147-10.788 47.44-33.869 41.83-98.16 73.41-107.335 77.84-150.417 72.58-310.527 109.13-541.283 199.93-59.051 23.24-133.941 52.9-210.763 92.91-98.718 51.4-147.051 91.98-192.953 135.16-60.954 57.31-139.251 139.53-209 243.28h-236.275V.72z" fill="#161616" stroke="#161616" stroke-miterlimit="10"/><path d="M12075.885.72c38.727 13.07 84.459 32.3 100.125 56 5.988 9.124 9.75 22.13-10.806 47.44-33.928 41.83-98.33 73.41-107.521 77.84-150.677 72.58-311.064 109.13-542.22 199.93-59.154 23.24-134.173 52.9-211.129 92.91-98.888 51.4-147.305 91.98-193.287 135.16-61.059 57.31-139.491 139.53-209.362 243.28h-236.684V.72z" fill="#161616" stroke="#161616" stroke-miterlimit="10"/><path d="M12314.582.72c38.774 13.07 84.561 32.3 100.247 56 5.994 9.116 9.76 22.119-10.82 47.44-33.969 41.83-98.448 73.41-107.65 77.84-150.859 72.58-311.439 109.13-542.873 199.93-59.225 23.24-134.335 52.9-211.383 92.91-99.008 51.4-147.482 91.98-193.519 135.16-61.133 57.31-139.66 139.53-209.615 243.28H10902V.72z" fill="#161616" stroke="#161616" stroke-miterlimit="10"/><path d="M12552.576.72c38.801 13.07 84.621 32.3 100.317 56 5.999 9.112 9.768 22.112-10.828 47.44-33.992 41.83-98.517 73.41-107.725 77.84-150.965 72.58-311.658 109.13-543.255 199.93-59.267 23.24-134.429 52.9-211.532 92.91-99.077 51.4-147.586 91.98-193.655 135.16-61.176 57.31-139.758 139.53-209.762 243.28H11139V.72z" fill="#161616" stroke="#161616" stroke-miterlimit="10"/><path d="M12789.9.72c38.81 13.07 84.64 32.3 100.34 56 6 9.11 9.77 22.11-10.83 47.44-34 41.83-98.54 73.41-107.75 77.84-151 72.58-311.73 109.13-543.38 199.93-59.28 23.24-134.46 52.9-211.58 92.91-99.1 51.4-147.62 91.98-193.7 135.16-61.19 57.31-139.79 139.53-209.81 243.28H11376V.72z" fill="#161616" stroke="#161616" stroke-miterlimit="10" /></svg>